<?xml version="1.0" encoding="utf-8"?>
<!-- Generator: Adobe Illustrator 25.1.0, SVG Export Plug-In . SVG Version: 6.00 Build 0)  -->
<svg version="1.1" id="Calque_1" xmlns="http://www.w3.org/2000/svg" xmlns:xlink="http://www.w3.org/1999/xlink" x="0px" y="0px"
	 viewBox="0 0 1140 1140" style="enable-background:new 0 0 1140 1140;" xml:space="preserve">
<style type="text/css">
	.st0{fill:none;stroke:#E52922;stroke-width:10;stroke-linecap:round;stroke-linejoin:round;stroke-miterlimit:10;}
	.st1{fill:none;stroke:#E52922;stroke-width:2;stroke-linecap:round;stroke-linejoin:round;stroke-miterlimit:10;}
	.st2{fill:none;stroke:#E52922;stroke-width:4;stroke-linecap:round;stroke-linejoin:round;stroke-miterlimit:10;}
</style>
<g id="Artboard_1">
	<g>
		<path class="st0" d="M888,749L888,749L888,749c6.9-3.2,14.1-3.9,21.1-5.8c9.5-2.6,19.1-4.7,28.7-6.6c6-1.1,12.1-1.7,18.1-2
			c12.1-0.6,23.3-4.9,34.8-7.8c14.2-3.6,10.5-5.9,4.2-14.5c-7.1-9.6-14.3-19.3-23.4-27.1c-15.4-13.1-31.3-25.6-47.4-37.9
			c-11.2-8.6-22.8-16.8-34.9-24.1c-9.9-6-20.7-10.3-31.2-15.3c-12.4-5.9-24.7-11.8-37.8-16.3c-8.2-2.8-12.5-10.2-16.2-17.5
			c-13.2-26.7-26.7-53.2-39.2-80.3c-8.2-17.6-16.6-35.1-23.4-53.4c-5.4-14.6-11.7-28.7-19-42.5c-10-19-21.8-36.7-34.5-53.9
			c-17.8-24-37.2-46.6-58.9-67.2c-9.9-9.4-20.2-18.2-30.9-26.6c-15.2-12.1-30.3-24.2-46.9-34.3c-13.8-8.4-26.9-18-41.4-25.2
			c-9.7-4.9-20.1-8.1-30.7-10.8c-12.9-3.4-25.8-7.3-38.9-9.2c-9.4-1.4-19.2-0.5-28.7-1.8c-5.4-0.7-10.1-2.2-14.3-6.5
			c-8-8.2-17.6-14.4-28-19.5c-5.1-2.5-10.1-5.7-15.2-8.5c-15.3-8.1-31.5-13.6-48.5-16.3c-8.9-1.4-18.3-1.7-27.2,1.3
			c-13.8,4.8-21.8,15.4-26.2,28.7c-4.7,14.3-1.9,28.1,5.5,40.8c8.6,14.8,19.4,28.1,29.9,41.6c9.2,12,18.7,24,25.2,38
			c3.2,7,4.7,14.5,7,21.7c6.1,19,12.7,37.9,20.1,56.5c7,17.6,15.7,34.4,25.7,50.5c1.7,2.8,3.6,5.4,6,7.6c2.3,2.1,4.6,4.2,6.5,6.6
			c5,6.1,5.1,8.5,1,15.6c-3.1,5.3-3.7,11.4-4.8,17.2c-2.6,13.2-7,26-9.5,39.3c-2.2,11.6-3.7,23.2-4.8,34.9
			c-1.5,16-0.4,32.1,2.1,47.9c2.9,18.7,6.8,37.1,14.9,54.6c6.6,14.2,14,27.8,25.4,38.8c5.3,5.1,11.1,9.7,18.2,11.5
			c16.9,4.2,32.8-2.6,38.3-23.1c3.3-12.5,3.1-25.7,6.1-38.3c1.1-4.7,1.2-9.7,4.5-13.7c0.1-0.1,0.2-1,0.6-1.1c0.2,0,0.4,0.1,0.5,0.1"
			/>
		<path class="st0" d="M963.5,709.7c0.9-1.9,1.2-3,1-3.6c0,0,0,0,0,0c-0.3-1.4-1.3-2.4-2-3c-4.8-4.3-9.2-9.3-14.7-12.5
			c-17.2-9.9-32.9-21.8-48.8-33.5c-21.1-15.5-45.3-24.1-69.7-32.2c-10.1-3.4-20.4-6.2-30.2-10.3c-8.7-3.6-14.5-10.8-19.3-19
			c-11.8-19.7-21.3-40.5-30.3-61.6c-4.9-11.5-10.7-22.6-16.1-33.8c-9-19-18.5-37.8-25.7-57.5c-13.6-37.8-36.4-70.1-60.2-101.8
			c-7.8-10.4-16.4-20.4-25.5-29.5c-14-14-28.4-27.8-44-40.3c-25-20.1-51.3-37.9-79.8-52.3c-14.8-7.5-30.2-13.5-46.4-17.8
			c-7.7-2.1-15.5-1.9-23.2-2.3c-9.9-0.5-19.8-2.2-29.8-2.3c-6.7-0.1-13.2-3.3-17.5-8c-9.3-10.3-21.3-16.1-33-22.5
			c-14.8-8.1-30.2-14.9-46.4-19.7c-5.1-1.5-10.1-1.9-15.7-0.8c-8.4,1.7-11.2,6.7-12.2,14.3c-0.5,4.4,0.4,8,1.9,12.2
			c7,19.3,22.5,32.5,33.6,48.8c7.7,11.4,16.3,22.3,22.1,34.8c6.7,14.4,12.4,29.1,16.7,44.4c6.2,21.6,13.3,43,23.7,63.1
			c6.3,12.3,14.1,23.7,24.1,33.3c6.7,6.4,10.1,14.3,9.6,23.7c-0.1,2.1-0.9,4.1-1.4,6.1c-4.7,18.5-13.1,35.9-17.1,54.5
			c-3,13.9-4.6,28-4.8,42.3c-0.3,17,0.9,33.8,3.8,50.4c2.7,15.6,7.3,30.7,14.5,44.9c3.2,6.5,5.4,13.4,11.5,18.3c2.5,2,4.9,4,7.7,5.4
			c5,2.5,7.4,1.1,8.6-4.5c2.8-12.8,3.4-25.9,5-38.9c2.7-22.4,9.6-43.1,25.3-60c1.1-1.2,2.1-3.4,4.2-5.4c2-1.9,4-3,5.4-3.7"/>
		<path class="st0" d="M519,883.8c-2.2,14,1.1,21.6,15.1,29.3c9.3,5.1,19.2,7.2,29.8,7.1c10.8-0.1,21.5,0.2,32.3-0.1
			c6-0.2,11.6,1.3,17.1,2.9c4.2,1.2,8.3,4.2,8.3,10.3c0,4.3,0.5,8.8,0.2,13.1c-0.6,10.1-6.4,15.1-17.1,15.1c-23.5,0.1-47.1,0-70.6,0
			c-3.4,0-6.7,0.4-10.1,0.5c-1,0-1.7,0.4-2.6,1c-4,2.6-5.1,15.1-1.5,18.3c1.3,1.1,2.7,1,4.1,1c28.6-0.2,57.2-0.2,85.8-0.6
			c11.8-0.2,22.7-3.7,32.3-11c6.7-5.1,10.2-11.7,10.1-20.2c-0.1-5.2-0.5-10.5,0.1-15.6c1.3-12.4-5.4-19.8-15.2-25.2
			c-9.5-5.3-20.1-6.8-30.8-7c-12.8-0.3-25.6-0.1-38.3-0.1c-1.2,0-2.4,0.1-3.5,0c-12.8-1.9-15.3-6.7-16.1-18.1
			c-0.3-4.2-0.4-8.4,0.3-12.6c0.8-4.5,3.2-7.1,7.6-8.1c3.5-0.8,7-1.5,10.6-1.5c26.2,0,52.5,0,78.7,0c7.6,0,7.5,0,7.6-7.6
			c0.1-14.2,0.8-12.6-12.6-12.6c-21.7-0.1-43.4-0.3-65.1,0.1c-10.1,0.2-20.3-0.5-30.3,1.9c-11,2.7-19.5,9-24.6,19.2
			c-3.2,6.3-2.5,13.3-1.6,20.1"/>
		<path class="st0" d="M974.6,966.5c0.1-2.8-1.3-4.3-4-4.5c-1.8-0.2-3.7-0.5-5.5-0.5c-24.6,0-49.1,0-73.7,0c-3.6,0-7.1-0.5-10.6-1.4
			c-5.9-1.5-8-5.6-9-10.7c-0.5-2.8-0.5-5.7-0.5-8.6c0-30.6,0-61.2,0-91.8c0-6.1-0.9-7-7.1-7.1c-5.7,0-11.4-0.1-17.2,0
			c-4.8,0.1-6,1.3-6,6c0,32.8-0.1,65.6,0,98.4c0.1,14.7,7.1,25.4,23.2,30.8c9.5,3.2,19.3,4.5,29.3,4.6c12.8,0.1,25.6,0.4,38.3,0.4
			c11.3,0,22.5-0.5,33.8-0.4c5.6,0.1,9.6-2.3,9.1-9.2c-0.1-1.8,0-3.7,0-5.5"/>
		<path class="st0" d="M805.1,976.6c7,6.7,14.1,13.5,21.1,20.2c4,3.7,4,4.9,3.7,5.4c-0.4,0.7-1.8,0.4-9.2,0.6c-0.5,0-1,0-1.5,0
			c-5,0-10.1-0.1-15.1,0c-4,0.1-7.2-1-10.2-4c-5-5.1-10.3-9.8-15.6-14.7c-2.5-2.3-5.5-3.6-9.1-3.1c-15.6,2.2-31.3,1.4-46.9,1.5
			c-7.7,0.1-15.4-0.3-22.7-2.6c-18.3-5.8-27.9-13.9-28.2-33.2c-0.4-23.9-0.2-47.8,0-71.6c0.1-8.1,2.6-16,9.1-21.1
			c10.2-7.9,22.2-11.6,35.2-11.7c19.8-0.1,39.7-0.1,59.5,0c9,0,18,0.7,26.2,4.6c11.9,5.7,20,12.2,20.2,27.1
			c0.3,25.2,0.2,50.4,0,75.7c-0.1,9.4-2.8,17.7-11.6,22.7C808.4,973.5,805.1,976.6,805.1,976.6z"/>
		<path class="st0" d="M469.1,884.3c-4.6,0.4-4.5,3.7-4.5,7.1c0,21.2-0.2,42.4,0.1,63.6c0.1,5.9-1.7,7.8-7.7,7.7
			c-19.5-0.3-39-0.1-58.5-0.1c-1.9,0-3.7-0.1-5.6-0.4c-10.7-1.9-11.9-5.4-11.9-12.7c-0.2-19-0.9-38,0.4-57c0.4-6.1-1.4-8.5-7.6-7.9
			c-5.8,0.5-11.4-0.1-17.2-0.2c-4-0.1-5.6,1.6-5.6,5.6c0.1,21.2,0,42.4,0.1,63.6c0,6.9,3.8,11.6,9,15.7c10.3,8,22,11.4,34.9,11.5
			c20.3,0.1,40.7,0,61,0.1c2.8,0,6.2-1.4,8,2c2,3.7,1.9,7.9,0.4,11.5c-3.2,8-10.6,9.3-18,9.6c-9.6,0.3-19.2,0.1-28.8,0.1
			c-17.5,0-35,0-52.5,0c-14,0-13.7,2.6-13.6,14.1c0,5.4,1.2,6.6,6.5,6.5c5.9-0.1,11.8-0.5,17.7-0.4c11.4,0.1,22.9,0.5,34.3,0.4
			c15.8-0.1,31.7,0.1,47.4-1.2c15-1.2,27.7-7.7,35.3-21.5c2.1-3.8,2.1-8.3,2.1-12.6c0-32.8,0-65.6,0-98.4c0-5.5-1.1-6.5-6.6-6.6
			c-6.1,0-12.1,0-18.2,0"/>
		<path class="st0" d="M219.9,956.9c-5.7-6.2-7.6-14.4-11-21.8c-7-15.6-12.7-31.8-20-47.3c-4.9-10.5-8.6-21.4-13.4-31.9
			c-4.7-10.2-13.5-15.1-23.8-17c-9.1-1.7-18,1.2-26.1,5c-6.8,3.2-9.2,9.5-9.2,17c0.1,34,0.1,67.9,0,101.9c0,4.4-0.5,8.7-0.4,13.1
			c0,4.4,1.6,6,6,6c6.4,0.1,12.8,0,19.2,0c3.2,0,4.7-1.2,5.1-4.5c0.9-7.2,0.5-14.5,0.3-21.7c-0.1-3.3-0.3-6.7-0.3-10.1
			c-0.1-19.8,0-39.7,0-59.5c0-2.1-0.4-4.2,1-6.1c2.5-3.3,2.5-4,2.5-4c2.9,2.1,5.1,4.6,6.6,8c8.3,18.7,16.9,37.3,25.1,56.1
			c3.4,7.9,7.2,15.6,10.3,23.6c4.4,11.3,12,19.5,25.1,19.7c14.2,0.2,25.6-0.3,32.4-19.1c2.9-8,7-15.5,10.5-23.3
			c6.3-13.9,12.4-27.9,18.7-41.9c3.2-7.1,5.7-15,10.4-20.9c3.6-4.5,3.7-2.8,3.7-2.8c2.5,2.7,3.1,6,3.1,9.6c-0.1,29.9,0,59.9,0,89.8
			c0,6.6,0.8,7.6,7.1,7c5.2-0.5,10.4-0.5,15.6,0.1c5.7,0.6,7.8-2.4,7.6-7.1c-1.2-38-0.3-76-0.6-114c-0.1-10.6-4.8-15.9-13.5-18.4
			c-7-2-14-3.8-21.2-3.2c-12.6,0.9-20.5,8.1-25.3,19.6c-6.7,15.9-14.2,31.6-21.1,47.5c-6.2,14.2-12.4,28.5-18,42.9
			c-1.4,3.6-3.9,5.9-6.2,8.5"/>
		<path class="st0" d="M963.5,709.7c-2.3,0.9-4.6,1-7.1,1c-21.9-0.1-43.6,1.3-65.1,6c-12.5,2.8-24.2,7.7-36.3,11.7
			c-2.9,1-5.9,1.7-8.6,3.4c-3.6,2.3-3.9,5.1-2.5,8.6c7.3,17.8,18.4,32.5,33.1,45.1c14.4,12.4,30.3,22.3,46.2,32.4
			c8.6,5.4,18.6,8.1,27.7,12.7c17.6,8.8,34.1,19.3,49.8,31c3.8,2.8,7.6,4.4,12.2,3.9l0,0c0,0,1,0.3,1.3,0.1c0.3-0.3-0.5-1.2-1.1-2.7
			c-0.3-0.8-0.5-1.6-0.8-2.4c-0.4-1.5-1.4-2.9-2.5-4c-13.3-13.7-24.2-29.5-39.3-41.5c-9.7-7.7-18.8-16.1-29.3-22.7
			c-14-8.8-28.8-16.3-41.4-27.2c-5-4.4-10.4-8.5-11.6-15.6"/>
		<path class="st0" d="M469.4,529.7c0,0,0,0.1,0,0.1c0.4,1.1,1,1.9,1.1,2c4.7,7,6.6,15.4,9.6,23.1c7.6,19.1,17,37.2,26.2,55.5
			c9.5,18.8,20.9,36.3,31.5,54.4c3.7,6.3,8.2,12.3,12.6,18.2c0.8,1.1,3,3.9,3.5,7.9c0.2,1.5,0.1,2.8,0,3.7"/>
		<path class="st0" d="M553.9,694.6c-1.2,0-2.8-0.1-4.5-0.6c0,0-2.9-0.5-5-2.4c-17.3-16.1-34.7-32.1-48-51.9
			c-7.6-11.4-8.2-21.8-19.1-36.4c-2.6-3.5-5-6.2-6.6-8.1"/>
		<path class="st0" d="M435.8,296.6c-1.1-2.1-3.3-3.5-4.3-6c-4-10-8.8-19.7-16.9-27.4c-3-2.9-5.7-6.1-6.1-10.6c0,0,0.1,1.3,4.1-3
			c0.4-0.4,1.6,0.1,2.5-0.1c6.2-1.2,11.3,0.5,16.8,3.9c10.5,6.4,16.3,16.9,13.9,28.9c-1.1,5.9-3.2,11.6-9.5,14.1
			C436.3,296.6,436,297,435.8,296.6z"/>
		<path class="st1" d="M1019.5,973.6c-2.9,0.2-3.2-2.5-4.5-4.1c-0.8-0.9-1.3-2-2-3c-1.1-1.6-2.1-4-4.5-3.4c-2.8,0.6-1,3.3-1.5,5
			c-0.6,1.9,0.6,4.4-2.1,5.5c-1.7-0.5-1.9-1.8-1.9-3.5c-0.2-5.9,0.5-11.8-0.3-17.7c-0.2-1.3,0.3-3.2,3.3-3.8c4.2-0.9,8-0.6,11.6,0.9
			c5.5,2.2,6.2,6.8,2,11c-1.2,1.2-2.4,2.4-3.7,3.7c1.4,3.3,5.2,5.7,4.7,9.9"/>
		<path class="st0" d="M736.5,940.9c3.9-2.6,8.6-2.3,13-2.1c13.2,0.8,23.8,6.4,32.3,16.6c3.8,4.6,6.3,4.1,9.5-1c1.3-2,2-4.2,2-6.6
			c0-23.2,0.3-46.4-0.1-69.6c-0.2-11.2-6.5-14.6-15-15.1c-3.5-0.2-7.1-0.3-10.6-0.5c-16.2-0.8-32.3-1.2-48.4,0.6
			c-11.8,1.3-14.8,6.5-15,15.1c-0.5,22.2-0.3,44.4-0.1,66.6c0.1,8,4.3,14.1,11.1,16.1c3.4,1,7,1.5,10.6,1.5
			c7.3-0.1,14.9,1.4,21.7-2.9l0,0l0.5-0.9l0,0c0,0-2.4-2.2-3.6-5.1c-0.3-0.7-1.3-1-2-1.5c-3.3-2.6-6.8-5-7.6-9.6
			C735,942.3,735.1,941.8,736.5,940.9z"/>
		<path class="st1" d="M1008.4,951.9c-2.4,1.3-2.3,3.3-1.5,5.6c0.9,2.6,3,1.3,4.6,1.5c1.7,0.2,3.4,0,5,0c1-7.1,1-7.1-7.5-7.1"/>
		<path class="st2" d="M1006.4,938.8c-8.8,3.2-14.9,8.9-17.1,18.2c-3,12.5,7.2,25.7,20.1,26.3c10.7,0.5,18-3.9,22.7-13.2
			c6.6-13.2-4.8-31.2-19.7-31.3c-1.8,0-3.7,0-5.5,0"/>
	</g>
</g>
</svg>
