<?xml version="1.0" encoding="utf-8"?>
<!-- Generator: Adobe Illustrator 25.1.0, SVG Export Plug-In . SVG Version: 6.00 Build 0)  -->
<svg version="1.1" id="Calque_1" xmlns="http://www.w3.org/2000/svg" xmlns:xlink="http://www.w3.org/1999/xlink" x="0px" y="0px"
	 viewBox="0 0 1140 1140" style="enable-background:new 0 0 1140 1140;" xml:space="preserve">
<style type="text/css">
	.st0{fill:none;stroke:#E52922;stroke-width:10;stroke-miterlimit:10;}
</style>
<g id="Artboard_1">
	<g>
		<path class="st0" d="M858.7,531.1c4.5-1,4.6-4.5,4.6-8.1c0-19.3,0-38.7,0-58c0-7.5-0.7-8.3-8.1-11.1c-21.3-8.3-43.7-10-66.1-11.4
			c-8.9-0.6-17.8,0-26.8,0.6c-10.4,0.8-20.7,1.7-30.8,4.3c-24.8,6.4-46.2,18.4-61.5,39.4c-14,19.2-19.2,41.3-16.5,64.5
			c2.7,23.3,14.2,42.3,32.6,57.1c17.8,14.2,38,23.7,59,31.9c14.1,5.5,28.6,10.4,40.9,19.6c8.9,6.6,12,18.7,4.1,26.8
			c-3.5,3.6-7.6,5.7-12.2,6.9c-20.4,5.3-40.7,3.1-61.1-0.5c-19.3-3.4-37.8-9.6-55-19.1c-5.5-3.1-9-0.9-9.6,5.5c-0.1,0.8,0,1.7,0,2.5
			c0,19.5,0.1,39-0.1,58.5c0,4.2,1.5,7.3,4.7,9.5c2.1,1.5,4.6,2.6,7,3.6c25.5,10.5,52.6,13,79.7,14.6c7,0.4,14.1-0.3,21.2-0.7
			c10.6-0.6,21-2,31.3-4.3c24.1-5.4,45.7-15.3,62.1-34.7c18.1-21.3,23.5-46.5,20.8-73.2c-2.5-24.4-15.9-43.1-36-57.1
			c-17.5-12.2-36.9-20.8-56.6-28.7c-14.6-5.9-29.7-10.8-42.5-20.6c-6.6-5.1-10-11.2-8.9-19.3c0.9-7.1,5.9-10.9,12.5-13.2
			c5.8-2.1,11.6-3.3,17.7-3.4c11.5-0.3,22.9,0.4,34.3,1.9c17.6,2.3,34.5,6.6,50.4,14.3c2.6,1.3,5.2,2.3,8.1,2H858.7z"/>
		<path class="st0" d="M400.8,550.5c0.3,1,0.9,2.5,2.3,3.5c2.3,1.8,5.4,1.3,6.4,1.3c11.3,0,22.6,0.6,33.8-0.1
			c19.7-1.2,39-4.3,56-15.5c14.1-9.3,22.4-21.9,24.8-38.9c2.1-14.5,1.3-28.7-4.8-41.8c-8.7-18.7-24.7-28.4-44.3-32.9
			c-22.5-5.2-45.4-2.3-68.1-3c-3.9-0.1-5.9,2.1-6.1,6c-0.1,1.9,0,3.4,0,3.5c0.4,2.6,0.4,32.7-0.1,110
			C400.8,545.3,400.8,547.9,400.8,550.5z"/>
		<path class="st0" d="M256.6,113.2c-6.9,1-13.8,1.7-20.7,3.1c-25.3,4.9-48,15.7-68.1,31.8c-15,12-28,26.1-38.4,42.3
			c-12.3,19.2-20,40-23.3,62.6c-1.4,9.8-1.9,19.5-1.9,29.3c0,194.8,0,389.6,0,584.5c0,18.4,3.8,36.2,10.1,53.5
			c9.9,27.2,26.5,50,48.5,68.6c22.8,19.3,49,31.8,78.7,36.4c8.7,1.4,17.4,2.5,26.2,2.5c202.1,0,404.1-0.1,606.2,0
			c28,0,54.4-5.6,79.3-18.7c22.1-11.7,40.4-27.6,55.6-47.4c14.5-19,24.2-40.1,29.6-63.2c2.2-9.4,3.7-19,3.6-28.7
			c0-198.7,0.1-397.4-0.1-596.1c0-26.1-7-50.7-19.6-73.7c-15.1-27.7-36.4-49.3-63.6-65.1c-17.9-10.4-37-16.9-57.5-19.8
			c-10.9-1.6-21.8-1.9-32.8-1.9c-203.7,0-407.5,0-611.2,0"/>
		<path class="st0" d="M399.9,346.4c-25.4-0.6-50.8,1.7-76.2,1.1c-6.6-0.2-8.6,2.1-8.6,8.5c0,131.9,0,263.8,0,395.7
			c0,6.2,2.2,8.5,8.6,8.6c22.5,0.1,45.1,0.1,67.6,0c6.4,0,8.6-2.4,8.6-9.1c0-37.7,0-75.4,0-113.1c0-8.1,1-9.1,9.1-9.1
			c8.6,0,17.2,0.5,25.7,0.8c10.9,0.4,21.9-0.9,32.8-1.7c13.2-1,26.1-3,38.8-6.2c28-7.1,53-19.8,72.1-41.9
			c16.5-19.1,26.7-41.3,30.5-66.5c1.6-10.6,2.5-21.2,1.8-31.8c-1.8-31-9.7-60.1-30.3-84.2c-18.4-21.5-42.2-34.9-69.1-43
			c-16.9-5.1-34.3-7.2-52-8.3C442.4,345.1,402.6,346.5,399.9,346.4z"/>
	</g>
</g>
</svg>
